<?xml version="1.0" encoding="UTF-8" standalone="no"?>
<!-- Created with Inkscape (http://www.inkscape.org/) -->
<svg id="svg2" xmlns:rdf="http://www.w3.org/1999/02/22-rdf-syntax-ns#" xmlns="http://www.w3.org/2000/svg" xml:space="preserve" height="36" width="55.115" version="1.1" xmlns:cc="http://creativecommons.org/ns#" xmlns:dc="http://purl.org/dc/elements/1.1/"><metadata id="metadata8"><rdf:RDF><cc:Work rdf:about=""><dc:format>image/svg+xml</dc:format><dc:type rdf:resource="http://purl.org/dc/dcmitype/StillImage"/><dc:title/></cc:Work></rdf:RDF></metadata><defs id="defs6"><clipPath id="clipPath16"><path id="path18" d="m0 101.02h154.66v-101.02h-154.66v101.02z"/></clipPath></defs><g id="g10" transform="matrix(1.25 0 0 -1.25 -.000375 36)"><g id="g12" fill="#fff" transform="matrix(.28509 0 0 .28509 .00021447 .00013718)"><g id="g14" fill="#fff" clip-path="url(#clipPath16)"><g id="g20" transform="translate(86.617 34.026)"><path id="path22" d="m0 0-2.859-3.99s15.083 10.736 40.562 5.998c0 0-33.623-1.543-33.683-12.269 0 0 21.712-27.867 47.42-7.367 0 0 6.567 9.114 16.604 10.841 0 0-43.204 40.351-68.044 6.787" fill="#fff"/></g><g id="g24" transform="translate(80.485 32.782)"><path id="path26" d="m0 0s29.408 16.652 2.218 48.324c0 0-11.439 8.953-14.785 19.915 0 0-31.006-27.604-11.327-56.955-30.357 18.974-56.591-9.903-56.591-9.903 11.912-4.86 21.891-18.55 21.891-18.55 34.915-33.605 52.015-2.502 52.015-2.502-3.012 14.139-41.748 24.819-41.748 24.819 27.741-0.319 47.872-18.336 47.872-18.336l-4.353 5.989c-1.37 1.847-2.738 3.553-4.107 5.159-4.049 6.64-11.328 21.456-9.799 40.278 0 0 6.271-35.775 18.714-38.238" fill="#fff"/></g></g></g></g></svg>
