<?xml version="1.0" encoding="UTF-8" standalone="no"?>
<!-- Created with Inkscape (http://www.inkscape.org/) -->
<svg id="svg2" xmlns:rdf="http://www.w3.org/1999/02/22-rdf-syntax-ns#" xmlns="http://www.w3.org/2000/svg" xml:space="preserve" height="45" width="48.934" version="1.1" xmlns:cc="http://creativecommons.org/ns#" xmlns:dc="http://purl.org/dc/elements/1.1/"><metadata id="metadata8"><rdf:RDF><cc:Work rdf:about=""><dc:format>image/svg+xml</dc:format><dc:type rdf:resource="http://purl.org/dc/dcmitype/StillImage"/><dc:title/></cc:Work></rdf:RDF></metadata><defs id="defs6"><clipPath id="clipPath16"><path id="path18" d="m0 128.86h140.13v-128.86h-140.13v128.86z"/></clipPath></defs><g id="g10" transform="matrix(1.25,0,0,-1.25,0,45)"><g id="g12" fill="#fff" transform="scale(.27936)"><g id="g14" fill="#fff" clip-path="url(#clipPath16)"><g id="g20" transform="translate(109.25 96.198)"><path id="path22" d="m0 0c0.057-0.723 0.045-1.437 0.036-2.144-0.006-0.707-0.011-1.406-0.014-2.091-0.096-1.368-0.141-2.7-0.289-3.95-0.062-0.628-0.147-1.233-0.22-1.821-0.109-0.583-0.219-1.145-0.352-1.68-0.232-1.073-0.575-2.036-0.895-2.877-0.345-0.835-0.68-1.548-1.008-2.124-0.326-0.57-0.626-1.004-0.842-1.295-0.215-0.291-0.351-0.429-0.351-0.429l-0.167 0.051s-0.023 0.192-0.056 0.552c-0.024 0.35-0.069 0.861-0.091 1.501-0.012 0.636-0.031 1.408 0 2.269-0.006 0.867 0.073 1.824 0.136 2.872 0.085 1.041 0.186 2.163 0.323 3.35 0.158 1.182 0.198 2.444 0.314 3.741 0.023 1.299 0.133 2.645 0.093 4.011-0.005 0.685-0.011 1.373-0.016 2.065 0.005 0.693-0.08 1.384-0.108 2.077-0.043 0.693-0.085 1.387-0.131 2.079-0.076 0.689-0.155 1.373-0.231 2.054-0.091 0.676-0.119 1.363-0.261 2.022-0.119 0.662-0.238 1.313-0.357 1.955-0.13 0.641-0.181 1.292-0.357 1.9-0.147 0.612-0.298 1.213-0.442 1.795-0.142 0.586-0.283 1.157-0.413 1.712-0.173 0.538-0.34 1.063-0.499 1.561-0.328 1.005-0.601 1.946-0.884 2.759-0.316 0.804-0.598 1.506-0.826 2.084-0.443 1.171-0.698 1.844-0.698 1.844l0.154 0.086s0.407-0.587 1.101-1.641c0.337-0.537 0.753-1.183 1.233-1.927 0.452-0.756 0.86-1.661 1.359-2.632 0.243-0.49 0.498-1.002 0.759-1.525 0.21-0.553 0.431-1.117 0.654-1.701 0.446-1.171 0.949-2.401 1.289-3.729 0.182-0.662 0.368-1.332 0.555-2.014 0.204-0.675 0.301-1.385 0.456-2.087 0.142-0.708 0.286-1.422 0.428-2.139 0.091-0.725 0.181-1.45 0.275-2.179 0.218-1.453 0.263-2.914 0.343-4.355m-10.86 26.33c0.043-0.053 0.096-0.103 0.147-0.15-0.133-0.071-0.77-0.415-1.802-0.972-0.583-0.3-1.286-0.668-2.095-1.087-0.788-0.462-1.652-1.016-2.606-1.591-0.474-0.296-0.974-0.585-1.473-0.913-0.49-0.349-0.995-0.709-1.512-1.077-0.519-0.368-1.051-0.744-1.598-1.127-0.544-0.381-1.042-0.85-1.589-1.277-0.541-0.43-1.088-0.866-1.64-1.311-0.555-0.444-1.062-0.96-1.603-1.441-0.53-0.488-1.071-0.98-1.609-1.474-0.516-0.518-1.031-1.041-1.549-1.562-1.057-1.019-2.009-2.145-2.966-3.224-0.969-1.072-1.83-2.206-2.711-3.266-0.807-1.11-1.656-2.136-2.359-3.19-0.719-1.032-1.413-2.001-2.073-2.888-0.68-0.874-1.281-1.691-1.887-2.382-0.569-0.704-1.115-1.304-1.564-1.8-0.458-0.494-0.843-0.871-1.101-1.134-0.275-0.263-0.422-0.401-0.422-0.401l-0.158 0.072s0.002 0.83 0.305 2.178c0.148 0.676 0.394 1.469 0.708 2.364 0.346 0.88 0.748 1.874 1.32 2.881 0.266 0.513 0.572 1.032 0.895 1.566 0.346 0.516 0.702 1.052 1.091 1.592 0.745 1.096 1.64 2.173 2.507 3.323 0.47 0.552 0.951 1.109 1.432 1.672 0.488 0.562 0.963 1.148 1.51 1.677 1.063 1.085 2.116 2.209 3.281 3.224 0.569 0.517 1.141 1.035 1.708 1.555 0.594 0.481 1.207 0.943 1.803 1.412 0.607 0.456 1.179 0.946 1.793 1.358 0.618 0.418 1.227 0.824 1.827 1.23 0.607 0.385 1.182 0.8 1.793 1.131 0.61 0.333 1.204 0.659 1.785 0.974 0.578 0.314 1.141 0.621 1.682 0.914 0.567 0.258 1.125 0.481 1.651 0.71 1.06 0.442 2.011 0.881 2.89 1.191 0.886 0.268 1.662 0.507 2.3 0.703 0.988 0.282 1.64 0.468 1.889 0.54m5.495-47.71c27.31 9.99 36.244-11.055 36.244-11.055-2.866 40.266-31.591 55.925-38.779 59.229 0.025 0.061 0.053 0.117 0.076 0.181l1.037 3.396c0.286 0.936-0.243 1.931-1.184 2.219-0.937 0.283-1.931-0.244-2.216-1.185l-1.036-3.395c-0.028-0.097-0.045-0.195-0.056-0.293-38.23 4.364-65.213-27.401-65.213-27.401 21.991 7.159 31.258-9.536 31.258-9.536 28.182 11.212 39.869-12.16 39.869-12.16" fill="#fff"/></g><g id="g24" transform="translate(86.11 85.132)"><path id="path26" d="m0 0c0.289 0.937 1.28 1.464 2.215 1.181 0.94-0.287 1.468-1.281 1.181-2.219l-18.793-61.623c-1.348-0.264-2.674-0.565-3.994-0.904l19.391 63.565z" fill="#fff"/></g><g id="g28" transform="translate(20.185 25.236)"><path id="path30" d="m0 0c11.374 3.594 23.407 5.01 30.975 5.566v-9.25c-8.928 1.016-18.4 0.424-27.673-3.054l-3.302 6.738zm-16.072-3.091c-0.844-0.5-1.127-1.588-0.629-2.432 0.329-0.565 0.924-0.875 1.53-0.875 0.306 0 0.617 0.078 0.901 0.244 3.353 1.975 7.046 3.625 10.871 5.008l3.416-6.952c-1.847-0.835-3.677-1.793-5.496-2.881 0 0-13.771-8.136 0-11.266 5.144-1.17 11.5 0.719 19.856 2.725 6.899 4.989 16.031 10.517 26.352 14.093-2.021 0.49-4.089 0.914-6.202 1.254v9.96c2.572 0.131 4.107 0.139 4.181 0.139l0.967 0.003 10.596 16.619c0.524 0.827 0.286 1.926-0.541 2.452-0.83 0.526-1.926 0.282-2.454-0.544l-9.554-14.989c-5.761-0.107-34.55-1.221-53.794-12.558" fill="#fff"/></g><g id="g32" transform="translate(110.83 12.467)"><path id="path34" d="m0 0c2.215-1.497 6.65-5.444 6.282-8.128-0.261-1.888-3.277-3.164-5.053-3.759-1.17-0.39-2.475-0.58-3.988-0.58-3.767 0-8.392 1.199-13.749 2.587-7.959 2.06-17.867 4.627-30.017 4.627-10.457 0-20.948-1.882-31.791-5.723 10.888 8.409 29.542 19.996 49.646 19.996 10.271 0 19.915-3.037 28.67-9.02" fill="#fff"/></g><g id="g36" transform="translate(21.102 87.546)"><path id="path38" d="m0 0c7.404 0 13.403-6 13.403-13.401 0-7.403-5.999-13.404-13.403-13.404-7.398 0-13.398 6.001-13.398 13.404 0 7.401 6 13.401 13.398 13.401m17.068-1.002-7.273 1.085-3.269 6.584-6.526-3.398-6.521 3.398-3.268-6.584-7.273-1.083l1.207-7.253-5.247-5.148 5.247-5.153-1.207-7.251 7.273-1.082 3.268-6.587 6.521 3.401 6.526-3.401 3.269 6.587 7.273 1.082-1.207 7.251 5.246 5.153-5.246 5.148 1.207 7.251z" fill="#fff"/></g></g></g></g></svg>
