<?xml version="1.0" encoding="UTF-8" standalone="no"?>
<!-- Created with Inkscape (http://www.inkscape.org/) -->
<svg id="svg2" xmlns:rdf="http://www.w3.org/1999/02/22-rdf-syntax-ns#" xmlns="http://www.w3.org/2000/svg" xml:space="preserve" height="45" width="40.069" version="1.1" xmlns:cc="http://creativecommons.org/ns#" xmlns:dc="http://purl.org/dc/elements/1.1/"><metadata id="metadata8"><rdf:RDF><cc:Work rdf:about=""><dc:format>image/svg+xml</dc:format><dc:type rdf:resource="http://purl.org/dc/dcmitype/StillImage"/><dc:title/></cc:Work></rdf:RDF></metadata><defs id="defs6"><clipPath id="clipPath16"><path id="path18" d="m0 129.32h115.15v-129.32h-115.15v129.32z"/></clipPath></defs><g id="g10" transform="matrix(1.25 0 0 -1.25 -.00062305 45)"><g id="g12" fill="#fff" transform="matrix(.27839 0 0 .27839 .00035968 .000036081)"><g id="g14" fill="#fff" clip-path="url(#clipPath16)"><g id="g20" transform="translate(103.23 36.068)"><path id="path22" d="m0 0c-2.075-1.661-5.652-1.681-10.451-0.1 1.861 8.289 1.51 17.666 0.663 25.087 2.724 1.821 5.989 3.315 8.117 2.409 2.615-1.111 4.08-6.343 4.02-14.352l-0.002-0.274 0.053-0.269c0.474-2.365 1.051-9.737-2.4-12.501m7.675 13.259c0.044 10.712-2.332 16.942-7.261 19.037-3.636 1.548-7.682 0.281-11.002-1.545-0.751 4.61-1.505 7.592-1.505 7.592h-34.407-34.408s-14.84-58.561 21.554-58.54h12.854 12.852c12.049-0.007 18.48 6.409 21.696 14.994 2.835-0.914 5.404-1.381 7.685-1.381 3.035 0 5.575 0.809 7.595 2.428 6.189 4.955 4.683 15.491 4.347 17.415" fill="#fff"/></g><g id="g24" transform="translate(115.15 8.8268)"><path id="path26" d="m0 0c-0.001-2.336-1.912-4.568-4.272-4.947-35.346-5.173-71.257-5.173-106.6 0-2.36 0.379-4.271 2.61-4.272 4.947-0.002 2.338 1.921 4.262 4.295 4.296h106.56c2.358-0.034 4.281-1.958 4.28-4.296" fill="#fff"/></g><g id="g28" transform="translate(40.666 119.58)"><path id="path30" d="m0 0s0.125-0.117 0.357-0.335c0.23-0.233 0.561-0.557 0.951-1.006 0.391-0.446 0.848-1.003 1.346-1.667 0.483-0.673 1.009-1.45 1.533-2.337 0.499-0.9 1.02-1.893 1.479-3 0.254-0.543 0.422-1.139 0.625-1.739 0.217-0.596 0.366-1.231 0.515-1.881 0.074-0.325 0.148-0.653 0.224-0.984 0.039-0.339 0.078-0.68 0.118-1.024 0.039-0.345 0.078-0.692 0.117-1.041 0.016-0.351 0.01-0.708 0.013-1.065 0.008-0.715 0.018-1.439-0.098-2.163-0.106-0.722-0.159-1.459-0.39-2.161-0.215-0.702-0.348-1.438-0.642-2.107-0.291-0.673-0.582-1.343-0.869-2.007-0.268-0.552-0.535-1.1-0.799-1.642-0.286-0.563-0.568-1.118-0.846-1.665-0.315-0.553-0.496-1.053-0.711-1.557-0.222-0.499-0.439-0.988-0.65-1.464-0.48-0.937-0.711-1.912-1.069-2.774-0.333-0.867-0.469-1.68-0.721-2.407-0.11-0.71-0.29-1.371-0.328-1.887-0.055-0.529-0.093-0.948-0.081-1.219-0.001-0.257-0.001-0.394-0.001-0.394l-0.995-0.451c0.014-0.011-0.144 0.202-0.269 0.505-0.068 0.157-0.169 0.358-0.253 0.592-0.068 0.235-0.145 0.506-0.232 0.81-0.199 0.621-0.219 1.354-0.341 2.237 0.005 0.844-0.004 1.837 0.113 2.877 0.072 0.516 0.175 1.049 0.268 1.607 0.092 0.558 0.189 1.138 0.374 1.713 0.36 1.126 0.703 2.447 1.197 3.567 0.25 0.56 0.504 1.13 0.761 1.706 0.28 0.597 0.563 1.202 0.848 1.812 0.235 0.512 0.472 1.029 0.71 1.548 0.251 0.515 0.347 1.085 0.536 1.625 0.208 0.537 0.235 1.118 0.352 1.678 0.141 0.558 0.167 1.135 0.201 1.707 0.017 0.286 0.048 0.571 0.055 0.857l-0.038 0.857c-0.011 0.569-0.046 1.133-0.127 1.692-0.058 0.559-0.117 1.112-0.246 1.647-0.111 0.537-0.202 1.069-0.355 1.576-0.241 1.031-0.56 1.992-0.874 2.878-0.317 0.887-0.636 1.696-0.95 2.404-0.317 0.706-0.591 1.332-0.849 1.829-0.243 0.504-0.45 0.901-0.589 1.159-0.143 0.265-0.22 0.407-0.22 0.407l0.85 0.687z" fill="#fff"/></g><g id="g32" transform="translate(54.94 129.32)"><path id="path34" d="m0 0s0.124-0.145 0.357-0.417c0.229-0.289 0.56-0.692 0.95-1.25 0.391-0.555 0.848-1.247 1.347-2.073 0.482-0.837 1.009-1.804 1.533-2.906 0.497-1.119 1.019-2.355 1.478-3.731 0.254-0.675 0.422-1.416 0.625-2.163 0.217-0.741 0.366-1.53 0.515-2.338 0.074-0.405 0.149-0.813 0.224-1.224 0.039-0.421 0.079-0.846 0.119-1.274 0.038-0.429 0.077-0.86 0.116-1.294 0.017-0.437 0.009-0.88 0.013-1.325 0.009-0.889 0.018-1.788-0.098-2.689-0.106-0.899-0.159-1.815-0.39-2.688-0.215-0.873-0.348-1.787-0.643-2.62-0.291-0.836-0.58-1.669-0.868-2.495-0.268-0.687-0.535-1.368-0.799-2.042-0.286-0.7-0.568-1.391-0.845-2.071-0.316-0.688-0.497-1.309-0.712-1.935-0.222-0.622-0.439-1.229-0.65-1.821-0.48-1.165-0.711-2.377-1.069-3.449-0.333-1.079-0.468-2.09-0.72-2.994-0.111-0.883-0.291-1.706-0.329-2.347-0.054-0.658-0.093-1.179-0.081-1.516-0.001-0.319-0.001-0.49-0.001-0.49l-0.995-0.56c0.014-0.014-0.144 0.251-0.268 0.628-0.068 0.195-0.17 0.445-0.254 0.736-0.068 0.293-0.145 0.63-0.232 1.007-0.199 0.772-0.219 1.684-0.34 2.782 0.005 1.049-0.006 2.284 0.112 3.578 0.072 0.641 0.175 1.304 0.268 1.998 0.092 0.694 0.19 1.415 0.374 2.13 0.36 1.4 0.703 3.043 1.197 4.436 0.25 0.697 0.503 1.404 0.761 2.121 0.28 0.743 0.563 1.495 0.848 2.253 0.235 0.638 0.472 1.28 0.71 1.925 0.251 0.64 0.347 1.349 0.536 2.02 0.208 0.669 0.235 1.392 0.352 2.088 0.141 0.695 0.168 1.411 0.202 2.123 0.016 0.356 0.047 0.71 0.054 1.065l-0.037 1.066c-0.012 0.707-0.047 1.41-0.127 2.104-0.059 0.696-0.118 1.383-0.247 2.048-0.111 0.668-0.201 1.33-0.355 1.959-0.24 1.283-0.56 2.478-0.874 3.58-0.316 1.103-0.635 2.109-0.95 2.99-0.317 0.878-0.59 1.656-0.848 2.273-0.244 0.627-0.451 1.122-0.59 1.442-0.142 0.33-0.219 0.506-0.219 0.506l0.85 0.854z" fill="#fff"/></g><g id="g36" transform="translate(68.791 119.58)"><path id="path38" d="m0 0s0.124-0.117 0.357-0.335c0.23-0.233 0.56-0.557 0.951-1.006 0.391-0.446 0.848-1.003 1.346-1.667 0.483-0.673 1.009-1.45 1.533-2.337 0.499-0.9 1.02-1.893 1.479-3 0.254-0.543 0.422-1.139 0.625-1.739 0.217-0.596 0.366-1.231 0.515-1.881 0.074-0.325 0.148-0.653 0.224-0.984 0.039-0.339 0.078-0.68 0.118-1.024 0.039-0.345 0.078-0.692 0.117-1.041 0.016-0.351 0.008-0.708 0.013-1.065 0.008-0.715 0.018-1.439-0.098-2.163-0.106-0.722-0.159-1.459-0.391-2.161-0.214-0.702-0.348-1.438-0.641-2.107-0.291-0.673-0.582-1.343-0.869-2.007-0.268-0.552-0.535-1.1-0.799-1.642-0.286-0.563-0.568-1.118-0.846-1.665-0.315-0.553-0.496-1.053-0.711-1.557-0.222-0.499-0.439-0.988-0.65-1.464-0.481-0.937-0.711-1.912-1.069-2.774-0.333-0.867-0.469-1.68-0.721-2.407-0.11-0.71-0.29-1.371-0.328-1.887-0.055-0.529-0.093-0.948-0.081-1.219-0.001-0.257-0.001-0.394-0.001-0.394l-0.995-0.451c0.014-0.011-0.144 0.202-0.269 0.505-0.068 0.157-0.169 0.358-0.254 0.592-0.067 0.235-0.144 0.506-0.231 0.81-0.199 0.621-0.219 1.354-0.341 2.237 0.005 0.844-0.004 1.837 0.113 2.877 0.072 0.516 0.175 1.049 0.268 1.607 0.092 0.558 0.189 1.138 0.374 1.713 0.36 1.126 0.703 2.447 1.196 3.567 0.251 0.56 0.505 1.13 0.762 1.706 0.28 0.597 0.563 1.202 0.848 1.812 0.235 0.512 0.472 1.029 0.709 1.548 0.252 0.515 0.348 1.085 0.537 1.625 0.208 0.537 0.235 1.118 0.352 1.678 0.14 0.558 0.167 1.135 0.201 1.707 0.017 0.286 0.048 0.571 0.055 0.857l-0.038 0.857c-0.011 0.569-0.046 1.133-0.127 1.692-0.058 0.559-0.117 1.112-0.246 1.647-0.111 0.537-0.202 1.069-0.355 1.576-0.241 1.031-0.56 1.992-0.874 2.878-0.317 0.887-0.636 1.696-0.95 2.404-0.317 0.706-0.591 1.332-0.849 1.829-0.243 0.504-0.45 0.901-0.589 1.159-0.143 0.265-0.22 0.407-0.22 0.407l0.85 0.687z" fill="#fff"/></g></g></g></g></svg>
