<?xml version="1.0" encoding="UTF-8" standalone="no"?>
<!-- Created with Inkscape (http://www.inkscape.org/) -->
<svg id="svg2" xmlns:rdf="http://www.w3.org/1999/02/22-rdf-syntax-ns#" xmlns="http://www.w3.org/2000/svg" xml:space="preserve" height="36" width="45.188" version="1.1" xmlns:cc="http://creativecommons.org/ns#" xmlns:dc="http://purl.org/dc/elements/1.1/"><metadata id="metadata8"><rdf:RDF><cc:Work rdf:about=""><dc:format>image/svg+xml</dc:format><dc:type rdf:resource="http://purl.org/dc/dcmitype/StillImage"/><dc:title/></cc:Work></rdf:RDF></metadata><defs id="defs6"><clipPath id="clipPath16"><path id="path18" d="m0 100.25h125.84v-100.25h-125.84v100.25z"/></clipPath></defs><g id="g10" transform="matrix(1.25 0 0 -1.25 -.00025699 36)"><g id="g12" fill="#fff" transform="matrix(.28728 0 0 .28728 .00014653 0)"><g id="g14" fill="#fff" clip-path="url(#clipPath16)"><g id="g20" transform="translate(46.508 18.698)"><path id="path22" d="m0 0c-1.739 0-3.144-1.408-3.144-3.143 0-1.738 1.405-3.146 3.144-3.146 1.733 0 3.145 1.408 3.145 3.146 0 1.735-1.412 3.143-3.145 3.143" fill="#fff"/></g><g id="g24" transform="translate(53.219 74.276)"><path id="path26" d="m0 0c-2.489-0.801-3.855-3.474-3.056-5.965 0.8-2.494 3.472-3.859 5.962-3.056 2.494 0.8 3.861 3.469 3.061 5.96-0.801 2.497-3.472 3.865-5.967 3.061" fill="#fff"/></g><g id="g28" transform="translate(42.153 40.515)"><path id="path30" d="m0 0c1.144 2.876-0.261 6.131-3.139 7.273-2.872 1.141-6.128-0.263-7.272-3.137-1.145-2.875 0.266-6.135 3.139-7.275 2.877-1.141 6.127 0.264 7.272 3.139" fill="#fff"/></g><g id="g32" transform="translate(19.114 63.43)"><path id="path34" d="m0 0c2.339 0 4.239 1.897 4.239 4.242 0 2.34-1.9 4.239-4.239 4.239s-4.239-1.899-4.239-4.239c0-2.345 1.9-4.242 4.239-4.242" fill="#fff"/></g><g id="g36" transform="translate(14.587 22.471)"><path id="path38" d="m0 0c-1.694 0-3.078-1.381-3.078-3.078 0-1.704 1.384-3.08 3.078-3.08 1.7 0 3.078 1.376 3.078 3.08 0 1.697-1.378 3.078-3.078 3.078" fill="#fff"/></g><g id="g40" transform="translate(107.04 66.801)"><path id="path42" d="m0 0c2.339-0.117 4.328 1.686 4.444 4.024 0.112 2.338-1.688 4.33-4.027 4.444-2.339 0.115-4.328-1.688-4.445-4.026-0.116-2.338 1.689-4.329 4.028-4.442" fill="#fff"/></g><g id="g44" transform="translate(83.686 60.197)"><path id="path46" d="m0 0c-2.339 0-4.239-1.896-4.239-4.238 0-2.345 1.9-4.244 4.239-4.244 2.345 0 4.244 1.899 4.244 4.244 0 2.342-1.899 4.238-4.244 4.238" fill="#fff"/></g><g id="g48" transform="translate(118.41 24.752)"><path id="path50" d="m0 0c1.716-1.309 2.044-3.755 0.739-5.468-1.311-1.711-3.756-2.044-5.472-0.738-1.162 0.741-2.084 1.569-2.833 2.423 0.199-2.113-0.079-3.721-0.079-3.721-0.194-2.147-2.094-3.734-4.238-3.539-2.145 0.192-3.728 2.09-3.539 4.233 0.011 1.257 0.183 2.395 0.45 3.411-1.55-1.208-2.911-1.803-2.911-1.803-1.895-1.025-4.261-0.316-5.289 1.576-1.022 1.897-0.317 4.264 1.572 5.287 1.745 1.141 3.45 1.722 4.978 1.98-2.739 1.009-4.617 2.711-4.617 2.711-1.717 1.308-2.05 3.753-0.739 5.469 1.306 1.712 3.75 2.043 5.467 0.734 1.161-0.74 2.089-1.571 2.839-2.417-0.206 2.11 0.078 3.716 0.078 3.716 0.188 2.146 2.089 3.734 4.233 3.539 2.144-0.193 3.733-2.09 3.539-4.235-0.006-1.257-0.178-2.395-0.45-3.408 1.55 1.21 2.911 1.805 2.911 1.805 1.894 1.023 4.267 0.317 5.289-1.577 1.028-1.894 0.316-4.264-1.578-5.288-1.733-1.144-3.445-1.72-4.973-1.977 2.74-1.013 4.623-2.713 4.623-2.713m-23.933 26.043c-0.745-1.652-2.684-2.386-4.339-1.642-1.644 0.581-2.906 1.422-3.855 2.315 0.722-2.345 0.544-4.47 0.544-4.47 0-1.811-1.473-3.282-3.284-3.282-1.805 0-3.277 1.471-3.277 3.282-0.095 1.158-0.017 2.195 0.172 3.129-1.311-1.213-2.528-1.843-2.528-1.843-1.533-0.964-3.561-0.507-4.522 1.03-0.966 1.53-0.505 3.557 1.028 4.523 0.844 0.636 1.689 1.1 2.505 1.436-1.599 0.423-2.688 1.029-2.688 1.029-1.651 0.746-2.389 2.684-1.639 4.338 0.744 1.649 2.683 2.383 4.333 1.641 1.65-0.583 2.905-1.427 3.861-2.315-0.722 2.346-0.544 4.468-0.544 4.468 0 1.815 1.472 3.28 3.283 3.28 1.805 0 3.278-1.465 3.278-3.28 0.094-1.155 0.011-2.196-0.173-3.127 1.306 1.208 2.523 1.842 2.523 1.842 1.533 0.964 3.561 0.503 4.527-1.028 0.967-1.531 0.506-3.56-1.027-4.521-0.845-0.638-1.689-1.105-2.506-1.44 1.595-0.421 2.683-1.027 2.683-1.027 1.656-0.745 2.39-2.688 1.645-4.338m-3.928-39.79c-0.744-1.652-2.689-2.385-4.339-1.642-1.65 0.581-2.905 1.425-3.856 2.316 0.717-2.347 0.545-4.474 0.545-4.474 0-1.809-1.472-3.277-3.283-3.277s-3.283 1.468-3.283 3.277c-0.095 1.16-0.012 2.199 0.178 3.135-1.312-1.213-2.534-1.844-2.534-1.844-1.528-0.967-3.556-0.506-4.517 1.027-0.966 1.534-0.505 3.556 1.028 4.522 0.844 0.638 1.689 1.104 2.506 1.439-1.601 0.421-2.695 1.028-2.695 1.028-1.65 0.745-2.383 2.685-1.638 4.338 0.744 1.65 2.688 2.385 4.338 1.64 1.65-0.582 2.906-1.426 3.861-2.311-0.722 2.343-0.544 4.465-0.544 4.465 0 1.815 1.467 3.282 3.278 3.282s3.277-1.467 3.277-3.282c0.1-1.156 0.017-2.193-0.172-3.129 1.311 1.211 2.528 1.842 2.528 1.842 1.533 0.966 3.561 0.505 4.522-1.026 0.972-1.533 0.511-3.558-1.022-4.521-0.845-0.638-1.694-1.102-2.505-1.438 1.594-0.424 2.683-1.029 2.683-1.029 1.65-0.746 2.388-2.689 1.644-4.338m-22.622 56.968c-0.228-2.014-2.044-3.461-4.056-3.234-1.95 0.053-3.577 0.52-4.894 1.141 1.567-2.247 2.111-4.571 2.111-4.571 0.617-1.929-0.444-3.994-2.366-4.614-1.928-0.621-3.995 0.438-4.617 2.367-0.5 1.197-0.767 2.332-0.889 3.39-0.977-1.737-2.055-2.831-2.055-2.831-1.3-1.547-3.617-1.757-5.167-0.454-1.556 1.302-1.761 3.611-0.462 5.165 0.684 0.967 1.423 1.755 2.179 2.39-1.845-0.101-3.212 0.173-3.212 0.173-2.01 0.225-3.461 2.042-3.238 4.052 0.233 2.012 2.044 3.46 4.055 3.233 1.956-0.055 3.583-0.522 4.9-1.141-1.572 2.25-2.111 4.571-2.111 4.571-0.617 1.925 0.445 3.994 2.367 4.613 1.927 0.621 3.994-0.441 4.616-2.366 0.5-1.198 0.761-2.334 0.889-3.391 0.978 1.738 2.056 2.825 2.056 2.825 1.3 1.556 3.611 1.761 5.167 0.461 1.549-1.3 1.755-3.615 0.455-5.163-0.678-0.971-1.422-1.755-2.172-2.39 1.839 0.097 3.211-0.174 3.211-0.174 2.011-0.226 3.461-2.041 3.233-4.052m-13.422-56.245c-0.55-1.224-1.989-1.767-3.217-1.215-1.216 0.429-2.149 1.052-2.855 1.715 0.533-1.738 0.4-3.317 0.4-3.317 0-1.339-1.089-2.432-2.428-2.432-1.345 0-2.433 1.093-2.433 2.432-0.073 0.86-0.011 1.627 0.127 2.32-0.972-0.895-1.877-1.363-1.877-1.363-1.134-0.714-2.634-0.377-3.351 0.761-0.716 1.136-0.371 2.638 0.762 3.354 0.628 0.472 1.256 0.817 1.861 1.064-1.189 0.312-1.995 0.763-1.995 0.763-1.222 0.55-1.772 1.993-1.216 3.216 0.55 1.224 1.989 1.769 3.217 1.218 1.222-0.433 2.149-1.055 2.855-1.716-0.533 1.739-0.4 3.312-0.4 3.312 0 1.345 1.089 2.432 2.434 2.432 1.338 0 2.427-1.087 2.427-2.432 0.078-0.855 0.011-1.628-0.128-2.319 0.973 0.897 1.878 1.362 1.878 1.362 1.134 0.718 2.634 0.377 3.35-0.759 0.717-1.134 0.372-2.637-0.761-3.353-0.628-0.47-1.256-0.818-1.861-1.064 1.189-0.312 1.994-0.763 1.994-0.763 1.228-0.554 1.772-1.993 1.217-3.216m-18.072 18.32c-0.883-2.225-3.4-3.308-5.628-2.429-2.222 0.885-3.311 3.404-2.428 5.626 0.445 1.471 1.056 2.708 1.739 3.764-2.194-0.849-4.005-1.03-4.005-1.03-2.345-0.438-4.611 1.115-5.044 3.467-0.445 2.352 1.111 4.613 3.461 5.055 1.349 0.366 2.616 0.526 3.782 0.54-1.76 1.3-2.799 2.573-2.799 2.573-1.667 1.72-1.617 4.464 0.094 6.128 1.728 1.664 4.467 1.621 6.134-0.099 1.738-1.523 2.872-3.168 3.605-4.726 0.261 3.232 1.517 5.753 1.517 5.753 0.883 2.227 3.4 3.31 5.628 2.428 2.216-0.881 3.311-3.402 2.422-5.625-0.445-1.468-1.056-2.705-1.739-3.761 2.2 0.847 4.005 1.033 4.005 1.033 2.35 0.435 4.617-1.118 5.05-3.471 0.439-2.352-1.116-4.614-3.466-5.051-1.345-0.369-2.612-0.53-3.778-0.543 1.761-1.297 2.799-2.573 2.799-2.573 1.662-1.72 1.617-4.464-0.105-6.128-1.717-1.667-4.461-1.62-6.122 0.099-1.745 1.519-2.872 3.168-3.605 4.725-0.262-3.229-1.517-5.755-1.517-5.755m-14.011-14.403c-0.539-1.201-1.95-1.733-3.15-1.196-1.195 0.424-2.111 1.035-2.8 1.681 0.522-1.701 0.394-3.246 0.394-3.246 0-1.314-1.066-2.38-2.383-2.38-1.311 0-2.378 1.066-2.378 2.38-0.072 0.844-0.011 1.598 0.122 2.276-0.949-0.879-1.833-1.34-1.833-1.34-1.111-0.7-2.583-0.363-3.283 0.746-0.7 1.116-0.367 2.582 0.744 3.285 0.617 0.461 1.228 0.8 1.823 1.045-1.162 0.303-1.956 0.744-1.956 0.744-1.194 0.542-1.728 1.952-1.189 3.15 0.539 1.197 1.95 1.732 3.15 1.194 1.194-0.427 2.105-1.039 2.794-1.684-0.516 1.704-0.388 3.245-0.388 3.245 0 1.317 1.066 2.384 2.378 2.384 1.316 0 2.382-1.067 2.382-2.384 0.073-0.836 0.012-1.596-0.127-2.272 0.95 0.882 1.839 1.336 1.839 1.336 1.111 0.701 2.583 0.367 3.283-0.741 0.7-1.116 0.367-2.587-0.744-3.286-0.617-0.462-1.228-0.799-1.822-1.044 1.161-0.304 1.949-0.745 1.949-0.745 1.201-0.541 1.734-1.951 1.195-3.148m-14.406 56.709c0.745 1.649 2.689 2.385 4.339 1.641 1.65-0.584 2.906-1.425 3.856-2.312-0.717 2.342-0.539 4.465-0.539 4.465 0 1.815 1.467 3.282 3.278 3.282s3.277-1.467 3.277-3.282c0.1-1.156 0.017-2.196-0.172-3.129 1.311 1.21 2.534 1.842 2.534 1.842 1.527 0.966 3.555 0.504 4.522-1.026 0.961-1.533 0.5-3.561-1.028-4.522-0.844-0.637-1.694-1.101-2.506-1.438 1.595-0.423 2.684-1.025 2.684-1.025 1.655-0.749 2.389-2.691 1.644-4.341-0.744-1.653-2.688-2.384-4.339-1.642-1.65 0.583-2.905 1.425-3.855 2.313 0.717-2.343 0.544-4.468 0.544-4.468 0-1.813-1.472-3.281-3.283-3.281s-3.278 1.468-3.278 3.281c-0.1 1.156-0.016 2.195 0.172 3.132-1.31-1.213-2.527-1.843-2.527-1.843-1.533-0.969-3.561-0.507-4.523 1.025-0.966 1.535-0.51 3.559 1.023 4.523 0.844 0.638 1.694 1.104 2.511 1.44-1.6 0.42-2.689 1.027-2.689 1.027-1.65 0.744-2.383 2.684-1.645 4.338m90.911 2.214c1.161 0.04 2.194-0.095 3.116-0.326-1.144 1.368-1.711 2.616-1.711 2.616-0.894 1.577-0.333 3.576 1.245 4.466 1.577 0.888 3.578 0.33 4.466-1.249 0.595-0.875 1.017-1.743 1.311-2.573 0.5 1.572 1.161 2.633 1.161 2.633 0.828 1.613 2.801 2.25 4.412 1.426 1.616-0.826 2.25-2.802 1.427-4.414-0.661-1.619-1.566-2.834-2.505-3.738 2.383 0.603 4.494 0.321 4.494 0.321 1.812-0.087 3.206-1.629 3.111-3.439-0.088-1.806-1.627-3.203-3.433-3.114-1.161-0.04-2.194 0.096-3.116 0.329 1.138-1.371 1.711-2.616 1.711-2.616 0.888-1.579 0.333-3.578-1.25-4.469-1.578-0.887-3.578-0.33-4.467 1.252-0.594 0.872-1.017 1.74-1.311 2.573-0.5-1.574-1.161-2.633-1.161-2.633-0.823-1.612-2.8-2.25-4.411-1.424-1.612 0.824-2.251 2.797-1.428 4.411 0.667 1.617 1.572 2.833 2.506 3.737-2.378-0.601-4.495-0.318-4.495-0.318-1.806 0.087-3.2 1.629-3.111 3.438s1.628 3.2 3.439 3.111m20.885 14.641-0.106 0.635-0.639-0.043c-19.477-1.203-38.139-1.818-55.466-1.825h-0.689-0.694c-17.322 0.007-35.983 0.622-55.461 1.825l-0.639 0.043-0.106-0.635c-4.927-29.556-6.799-56.572-5.727-82.59l0.022-0.566 0.555-0.104c20.65-3.81 39.889-5.757 58.822-5.941l0.723-0.008-0.006 0.719c-0.034 13.812-0.028 28.129 0.017 42.558l1.744-0.005 3.245 0.005c0.044-14.431 0.049-28.746 0.01-42.558v-0.719l0.717 0.008c18.939 0.184 38.177 2.131 58.827 5.941l0.556 0.104 0.022 0.566c1.073 26.018-0.8 53.034-5.727 82.59" fill="#fff"/></g><g id="g52" transform="translate(110.73 32.254)"><path id="path54" d="m0 0c-2.217 1.689-5.383 1.263-7.067-0.953-1.694-2.213-1.261-5.382 0.95-7.068 2.217-1.693 5.383-1.264 7.072 0.95 1.689 2.216 1.261 5.382-0.955 7.071" fill="#fff"/></g><g id="g56" transform="translate(79.758 20.408)"><path id="path58" d="m0 0c-2.339 0-4.239-1.898-4.239-4.239 0-2.343 1.9-4.243 4.239-4.243s4.239 1.9 4.239 4.243c0 2.341-1.9 4.239-4.239 4.239" fill="#fff"/></g><g id="g60" transform="translate(62.92 89.27)"><path id="path62" d="m0 0c18.755 0 37.527 0.578 55.805 1.716l0.788 0.048-0.133 0.782c-0.45 2.605-0.922 5.214-1.411 7.828l-0.116 0.608-0.617-0.031c-35.5-1.875-73.133-1.875-108.63 0l-0.623 0.031-0.111-0.611c-0.494-2.611-0.961-5.22-1.411-7.825l-0.133-0.782 0.788-0.048c18.276-1.138 37.048-1.716 55.804-1.716" fill="#fff"/></g></g></g></g></svg>
